<svg width="30" height="30" viewBox="0 0 30 30" fill="none" xmlns="http://www.w3.org/2000/svg">
<path d="M11.0234 6.83253C10.7721 6.58196 10.4617 6.39871 10.1209 6.29969C9.7801 6.20065 9.41984 6.18904 9.07337 6.26591C8.7269 6.34278 8.40537 6.50567 8.13845 6.73952C7.87155 6.97338 7.66786 7.27069 7.54619 7.60399L0.526299 26.9082C0.410988 27.2266 0.373733 27.5679 0.417683 27.9037C0.461621 28.2393 0.58549 28.5597 0.778869 28.8376C0.972248 29.1155 1.22949 29.343 1.52903 29.501C1.82856 29.6589 2.16162 29.7428 2.50027 29.7454C2.7496 29.7437 2.99672 29.6985 3.23048 29.6117L22.5381 22.5922C22.8717 22.4708 23.1692 22.2672 23.4032 22.0004C23.6373 21.7337 23.8003 21.4122 23.8774 21.0659C23.9544 20.7195 23.9429 20.3593 23.8439 20.0185C23.745 19.6777 23.5618 19.3672 23.3112 19.116L11.0234 6.83253ZM9.90933 24.9106L5.22851 20.231L6.9885 15.3897L14.7519 23.1512L9.90933 24.9106ZM2.55376 27.5848L4.42609 22.4491L7.69597 25.7182L2.55376 27.5848ZM16.9761 22.3436L7.79627 13.1661L9.53486 8.37012L21.7624 20.5948L16.9761 22.3436ZM17.511 9.42238C17.5311 8.69926 17.7062 7.98889 18.0245 7.33927C18.7333 5.92334 20.0707 5.14384 21.7905 5.14384C22.6866 5.14384 23.2617 4.83766 23.616 4.17983C23.8027 3.81181 23.9098 3.40864 23.9304 2.99655C23.9315 2.71286 24.0451 2.44122 24.2465 2.24137C24.448 2.04153 24.7205 1.92986 25.0042 1.93092C25.288 1.93198 25.5598 2.04569 25.7596 2.24704C25.9595 2.44839 26.0712 2.72088 26.0702 3.00457C26.0702 4.724 24.9307 7.28311 21.7905 7.28311C20.8946 7.28311 20.3195 7.58929 19.965 8.24712C19.7785 8.61514 19.6714 9.01831 19.6508 9.4304C19.6502 9.57086 19.622 9.70986 19.5678 9.83942C19.5136 9.969 19.4343 10.0866 19.3345 10.1856C19.2349 10.2845 19.1166 10.3629 18.9867 10.4161C18.8566 10.4694 18.7174 10.4966 18.5768 10.496C18.4364 10.4955 18.2973 10.4673 18.1678 10.4131C18.0381 10.3588 17.9204 10.2796 17.8215 10.1799C17.7225 10.0802 17.6441 9.96199 17.5908 9.83202C17.5375 9.70205 17.5105 9.56284 17.511 9.42238ZM14.3012 5.14384V1.93492C14.3012 1.65124 14.414 1.37918 14.6146 1.17858C14.8153 0.977994 15.0874 0.865295 15.3711 0.865295C15.6549 0.865295 15.9271 0.977994 16.1276 1.17858C16.3284 1.37918 16.441 1.65124 16.441 1.93492V5.14384C16.441 5.42752 16.3284 5.69958 16.1276 5.90018C15.9271 6.10078 15.6549 6.21347 15.3711 6.21347C15.0874 6.21347 14.8153 6.10078 14.6146 5.90018C14.414 5.69958 14.3012 5.42752 14.3012 5.14384ZM27.897 16.153C27.9963 16.2524 28.0751 16.3704 28.1288 16.5002C28.1825 16.6301 28.2102 16.7692 28.2101 16.9097C28.2101 17.0501 28.1822 17.1891 28.1284 17.319C28.0746 17.4487 27.9957 17.5667 27.8963 17.6659C27.7969 17.7652 27.6789 17.8439 27.5491 17.8976C27.4193 17.9513 27.2801 17.979 27.1397 17.9789C26.9991 17.9789 26.8599 17.9511 26.7301 17.8974C26.6004 17.8435 26.4824 17.7646 26.3831 17.6653L24.2434 15.526C24.0425 15.3253 23.9298 15.0531 23.9298 14.7693C23.9298 14.4854 24.0425 14.2132 24.2434 14.0125C24.4441 13.8117 24.7163 13.699 25.0003 13.699C25.2842 13.699 25.5565 13.8117 25.7572 14.0125L27.897 16.153ZM28.5483 10.4372L25.3386 11.5068C25.0693 11.5965 24.7755 11.5757 24.5218 11.4488C24.2679 11.3219 24.0749 11.0994 23.9851 10.8303C23.8955 10.5611 23.9164 10.2674 24.0433 10.0136C24.1701 9.75987 24.3928 9.56691 24.6619 9.4772L27.8716 8.40756C28.1409 8.31785 28.4347 8.33872 28.6884 8.46559C28.9423 8.59248 29.1353 8.81496 29.2251 9.0841C29.3147 9.35325 29.2938 9.64701 29.1669 9.90077C29.0401 10.1545 28.8176 10.3475 28.5483 10.4372Z" fill="url(#paint0_linear_15_151)"/>
<path d="M22.2351 13.0283C22.6942 13.0283 23.0665 12.6565 23.0665 12.1978C23.0665 11.7391 22.6942 11.3672 22.2351 11.3672C21.7759 11.3672 21.4036 11.7391 21.4036 12.1978C21.4036 12.6565 21.7759 13.0283 22.2351 13.0283Z" fill="url(#paint1_linear_15_151)"/>
<path d="M22.2351 2.52648C22.6942 2.52648 23.0665 2.15461 23.0665 1.69589C23.0665 1.23717 22.6942 0.865295 22.2351 0.865295C21.7759 0.865295 21.4036 1.23717 21.4036 1.69589C21.4036 2.15461 21.7759 2.52648 22.2351 2.52648Z" fill="url(#paint2_linear_15_151)"/>
<defs>
<linearGradient id="paint0_linear_15_151" x1="14.8399" y1="0.865295" x2="14.8399" y2="29.7454" gradientUnits="userSpaceOnUse">
<stop stop-color="#FF0000"/>
<stop offset="0.161458" stop-color="#FF5C40"/>
<stop offset="0.401042" stop-color="#F7F751"/>
<stop offset="0.484375" stop-color="#71F34A"/>
<stop offset="0.661458" stop-color="#0000ED"/>
<stop offset="0.713542" stop-color="#420879"/>
<stop offset="0.916667" stop-color="#A83BEE"/>
</linearGradient>
<linearGradient id="paint1_linear_15_151" x1="22.2351" y1="11.3672" x2="22.2351" y2="13.0283" gradientUnits="userSpaceOnUse">
<stop stop-color="#FF0000"/>
<stop offset="0.385417" stop-color="#CC030D" stop-opacity="0.791667"/>
<stop offset="1" stop-color="#FFED50" stop-opacity="0.87"/>
</linearGradient>
<linearGradient id="paint2_linear_15_151" x1="22.2351" y1="0.865295" x2="22.2351" y2="2.52648" gradientUnits="userSpaceOnUse">
<stop stop-color="#FF0000"/>
<stop offset="0.385417" stop-color="#CC030D" stop-opacity="0.791667"/>
<stop offset="1" stop-color="#FFED50" stop-opacity="0.87"/>
</linearGradient>
</defs>
</svg>
