<svg width="33" height="32" viewBox="0 0 33 32" fill="none" xmlns="http://www.w3.org/2000/svg">
<path fill-rule="evenodd" clip-rule="evenodd" d="M2.58594 4.96401C3.07418 4.15558 5.76431 1.21514 7.68402 1.30391C8.25787 1.35146 8.76513 1.69862 9.1773 2.10124C10.1237 3.02538 12.8328 6.5206 12.9866 7.25612C13.3607 9.06 11.2111 10.0999 11.869 11.918C13.5461 16.0219 16.4361 18.9117 20.5417 20.5871C22.3584 21.245 23.3983 19.0955 25.2023 19.4712C25.9363 19.6249 29.4333 22.334 30.3574 23.2803C30.7585 23.6909 31.1072 24.1996 31.1548 24.7735C31.2261 26.7946 28.1032 29.5226 27.4945 29.8713C26.0584 30.8985 24.1845 30.881 21.9003 29.8189C15.5262 27.167 5.33947 17.1727 2.63825 10.558C1.60469 8.28645 1.53335 6.40015 2.58594 4.96401Z" stroke="#0055FF" stroke-width="2" stroke-linecap="round" stroke-linejoin="round"/>
</svg>
