<svg width="20" height="30" viewBox="0 0 20 30" fill="none" xmlns="http://www.w3.org/2000/svg">
<path d="M14.2917 6.5528H4.91675C2.84569 6.5528 1.16675 8.23173 1.16675 10.3028V19.6778C1.16675 21.7489 2.84569 23.4278 4.91675 23.4278H14.2917C16.3629 23.4278 18.0417 21.7489 18.0417 19.6778V10.3028C18.0417 8.23173 16.3629 6.5528 14.2917 6.5528Z" stroke="#0055FF" stroke-width="2" stroke-linejoin="round"/>
<path d="M4.91675 6.5528V2.33405C4.91675 2.20972 4.96614 2.0905 5.05404 2.0026C5.14195 1.91468 5.26117 1.8653 5.3855 1.8653H13.823C13.9474 1.8653 14.0665 1.91468 14.1545 2.0026C14.2424 2.0905 14.2917 2.20972 14.2917 2.33405V6.5528M14.2917 23.4278V27.6465C14.2917 27.7709 14.2424 27.89 14.1545 27.978C14.0665 28.0659 13.9474 28.1153 13.823 28.1153H5.3855C5.26117 28.1153 5.14195 28.0659 5.05404 27.978C4.96614 27.89 4.91675 27.7709 4.91675 27.6465V23.4278" stroke="#0055FF" stroke-width="2" stroke-linejoin="round"/>
</svg>
