<svg width="36" height="33" viewBox="0 0 36 33" fill="none" xmlns="http://www.w3.org/2000/svg">
<path d="M12.7673 16.488H12.7841M22.8067 16.488H22.8235" stroke="#0055FF" stroke-width="2" stroke-linecap="round" stroke-linejoin="round"/>
<path d="M29.4997 6.95056C31.0157 8.8508 32.049 11.0898 32.5115 13.4762C33.0772 13.7502 33.5544 14.1781 33.8884 14.7107C34.2222 15.2434 34.3993 15.8593 34.3993 16.488C34.3993 17.1166 34.2222 17.7325 33.8884 18.2653C33.5544 18.7979 33.0772 19.2257 32.5115 19.4998C31.7892 22.8689 29.9334 25.8882 27.2537 28.0542C24.574 30.2202 21.2326 31.4018 17.7871 31.4018C14.3415 31.4018 11.0001 30.2202 8.32045 28.0542C5.6408 25.8882 3.78499 22.8689 3.06264 19.4998C2.49685 19.2257 2.01968 18.7979 1.6858 18.2653C1.35194 17.7325 1.17487 17.1166 1.17487 16.488C1.17487 15.8593 1.35194 15.2434 1.6858 14.7107C2.01968 14.1781 2.49685 13.7502 3.06264 13.4762C3.75579 10.0803 5.59907 7.02756 8.28148 4.83287C10.9639 2.63816 14.3212 1.43589 17.7871 1.42889C21.1335 1.42889 23.6434 3.26945 23.6434 5.61197C23.6434 7.9545 22.1375 9.79505 20.2969 9.79505C18.9583 9.79505 17.7871 9.12576 17.7871 8.12182" stroke="#0055FF" stroke-width="2" stroke-linecap="round" stroke-linejoin="round"/>
<path d="M14.4398 21.5077C15.5853 24.2568 19.3814 24.5101 20.8819 21.9377L21.1327 21.5077" stroke="#0055FF" stroke-width="1.5" stroke-linecap="round"/>
</svg>
