<svg width="33" height="33" viewBox="0 0 33 33" fill="none" xmlns="http://www.w3.org/2000/svg">
<path d="M12.1772 16.8172V22.4508" stroke="#0055FF" stroke-width="2" stroke-linecap="round" stroke-linejoin="round"/>
<path d="M15.0518 19.6343H9.30371" stroke="#0055FF" stroke-width="2" stroke-linecap="round" stroke-linejoin="round"/>
<path d="M21.9822 16.9886H21.821" stroke="#0055FF" stroke-width="2" stroke-linecap="round" stroke-linejoin="round"/>
<path d="M24.7101 22.3659H24.549" stroke="#0055FF" stroke-width="2" stroke-linecap="round" stroke-linejoin="round"/>
<path d="M11.01 1.30194C11.01 2.41584 11.9314 3.31883 13.0679 3.31883H14.6572C16.4106 3.32509 17.8308 4.71707 17.8388 6.43557V7.45105" stroke="#0055FF" stroke-width="2" stroke-linecap="round" stroke-linejoin="round"/>
<path fill-rule="evenodd" clip-rule="evenodd" d="M23.5799 31.3315C19.0592 31.408 14.6214 31.4049 10.2586 31.3315C5.4159 31.3315 1.87555 27.8773 1.87555 23.1311V16.1368C1.87555 11.3907 5.4159 7.93645 10.2586 7.93645C14.6453 7.86147 19.0863 7.86303 23.5799 7.93645C28.4227 7.93645 31.9614 11.3922 31.9614 16.1368V23.1311C31.9614 27.8773 28.4227 31.3315 23.5799 31.3315Z" stroke="#0055FF" stroke-width="2" stroke-linecap="round" stroke-linejoin="round"/>
</svg>
