<svg width="32" height="32" viewBox="0 0 32 32" fill="none" xmlns="http://www.w3.org/2000/svg">
<path fill-rule="evenodd" clip-rule="evenodd" d="M15.6693 30.1525C12.2898 28.0033 9.1458 25.4737 6.2937 22.6094C4.28855 20.5464 2.76205 18.0316 1.83112 15.2574C0.155879 9.87571 2.11267 3.71476 7.58884 1.89147C10.4669 0.934073 13.6101 1.48127 16.0354 3.36187C18.4615 1.48357 21.6037 0.936566 24.482 1.89147C29.9582 3.71476 31.929 9.87571 30.2537 15.2574C29.3227 18.0316 27.7963 20.5464 25.7911 22.6094C22.939 25.4737 19.795 28.0033 16.4154 30.1525L16.0494 30.3877L15.6693 30.1525Z" stroke="#0055FF" stroke-width="2" stroke-linecap="round" stroke-linejoin="round"/>
<path d="M21.8634 7.94946C23.522 8.49695 24.7005 10.0356 24.8478 11.846" stroke="#0055FF" stroke-width="2" stroke-linecap="round" stroke-linejoin="round"/>
</svg>
