<svg width="93" height="67" viewBox="0 0 93 67" fill="none" xmlns="http://www.w3.org/2000/svg">
<path d="M43.0234 6.83253C42.7721 6.58196 42.4617 6.39871 42.1209 6.29969C41.7801 6.20065 41.4198 6.18904 41.0734 6.26591C40.7269 6.34278 40.4054 6.50567 40.1385 6.73952C39.8715 6.97338 39.6679 7.27069 39.5462 7.60399L32.5263 26.9082C32.411 27.2266 32.3737 27.5679 32.4177 27.9037C32.4616 28.2393 32.5855 28.5597 32.7789 28.8376C32.9722 29.1155 33.2295 29.343 33.529 29.501C33.8286 29.6589 34.1616 29.7428 34.5003 29.7454C34.7496 29.7437 34.9967 29.6985 35.2305 29.6117L54.5381 22.5922C54.8717 22.4708 55.1692 22.2672 55.4032 22.0004C55.6373 21.7337 55.8003 21.4122 55.8774 21.0659C55.9544 20.7195 55.9429 20.3593 55.8439 20.0185C55.745 19.6777 55.5618 19.3672 55.3112 19.116L43.0234 6.83253ZM41.9093 24.9106L37.2285 20.231L38.9885 15.3897L46.7519 23.1512L41.9093 24.9106ZM34.5538 27.5848L36.4261 22.4491L39.696 25.7182L34.5538 27.5848ZM48.9761 22.3436L39.7963 13.1661L41.5349 8.37012L53.7624 20.5948L48.9761 22.3436ZM49.511 9.42238C49.5311 8.69926 49.7062 7.98889 50.0245 7.33927C50.7333 5.92334 52.0707 5.14384 53.7905 5.14384C54.6866 5.14384 55.2617 4.83766 55.616 4.17983C55.8027 3.81181 55.9098 3.40864 55.9304 2.99655C55.9315 2.71286 56.0451 2.44122 56.2465 2.24137C56.448 2.04153 56.7205 1.92986 57.0042 1.93092C57.288 1.93198 57.5598 2.04569 57.7596 2.24704C57.9595 2.44839 58.0712 2.72088 58.0702 3.00457C58.0702 4.724 56.9307 7.28311 53.7905 7.28311C52.8946 7.28311 52.3195 7.58929 51.965 8.24712C51.7785 8.61514 51.6714 9.01831 51.6508 9.4304C51.6502 9.57086 51.622 9.70986 51.5678 9.83942C51.5136 9.969 51.4343 10.0866 51.3345 10.1856C51.2349 10.2845 51.1166 10.3629 50.9867 10.4161C50.8566 10.4694 50.7174 10.4966 50.5768 10.496C50.4364 10.4955 50.2973 10.4673 50.1678 10.4131C50.0381 10.3588 49.9204 10.2796 49.8215 10.1799C49.7225 10.0802 49.6441 9.96199 49.5908 9.83202C49.5375 9.70205 49.5105 9.56284 49.511 9.42238ZM46.3012 5.14384V1.93492C46.3012 1.65124 46.414 1.37918 46.6146 1.17858C46.8153 0.977994 47.0874 0.865295 47.3711 0.865295C47.6549 0.865295 47.9271 0.977994 48.1276 1.17858C48.3284 1.37918 48.441 1.65124 48.441 1.93492V5.14384C48.441 5.42752 48.3284 5.69958 48.1276 5.90018C47.9271 6.10078 47.6549 6.21347 47.3711 6.21347C47.0874 6.21347 46.8153 6.10078 46.6146 5.90018C46.414 5.69958 46.3012 5.42752 46.3012 5.14384ZM59.897 16.153C59.9963 16.2524 60.0751 16.3704 60.1288 16.5002C60.1825 16.6301 60.2102 16.7692 60.2101 16.9097C60.2101 17.0501 60.1822 17.1891 60.1284 17.319C60.0746 17.4487 59.9957 17.5667 59.8963 17.6659C59.7969 17.7652 59.6789 17.8439 59.5491 17.8976C59.4193 17.9513 59.2801 17.979 59.1397 17.9789C58.9991 17.9789 58.8599 17.9511 58.7301 17.8974C58.6004 17.8435 58.4824 17.7646 58.3831 17.6653L56.2434 15.526C56.0425 15.3253 55.9298 15.0531 55.9298 14.7693C55.9298 14.4854 56.0425 14.2132 56.2434 14.0125C56.4441 13.8117 56.7163 13.699 57.0003 13.699C57.2842 13.699 57.5565 13.8117 57.7572 14.0125L59.897 16.153ZM60.5483 10.4372L57.3386 11.5068C57.0693 11.5965 56.7755 11.5757 56.5218 11.4488C56.2679 11.3219 56.0749 11.0994 55.9851 10.8303C55.8955 10.5611 55.9164 10.2674 56.0433 10.0136C56.1701 9.75987 56.3928 9.56691 56.6619 9.4772L59.8716 8.40756C60.1409 8.31785 60.4347 8.33872 60.6884 8.46559C60.9423 8.59248 61.1353 8.81496 61.2251 9.0841C61.3147 9.35325 61.2938 9.64701 61.1669 9.90077C61.0401 10.1545 60.8176 10.3475 60.5483 10.4372Z" fill="url(#paint0_linear_24_212)"/>
<path d="M54.2351 13.0283C54.6942 13.0283 55.0665 12.6565 55.0665 12.1978C55.0665 11.7391 54.6942 11.3672 54.2351 11.3672C53.7759 11.3672 53.4036 11.7391 53.4036 12.1978C53.4036 12.6565 53.7759 13.0283 54.2351 13.0283Z" fill="url(#paint1_linear_24_212)"/>
<path d="M54.2351 2.52648C54.6942 2.52648 55.0665 2.15461 55.0665 1.69589C55.0665 1.23717 54.6942 0.865295 54.2351 0.865295C53.7759 0.865295 53.4036 1.23717 53.4036 1.69589C53.4036 2.15461 53.7759 2.52648 54.2351 2.52648Z" fill="url(#paint2_linear_24_212)"/>
<path d="M4.45675 59.7394C4.16742 59.7394 3.94342 59.66 3.78475 59.5014C3.63542 59.3334 3.56075 59.1047 3.56075 58.8154L3.56075 50.5554C3.56075 50.2567 3.63542 50.0327 3.78475 49.8834C3.94342 49.7247 4.16742 49.6454 4.45675 49.6454C4.74608 49.6454 4.96542 49.7247 5.11475 49.8834C5.27342 50.0327 5.35275 50.2567 5.35275 50.5554L5.35275 54.1254L5.38075 54.1254L9.39875 50.0934C9.54808 49.944 9.69742 49.832 9.84675 49.7574C9.99608 49.6827 10.1641 49.6454 10.3508 49.6454C10.6214 49.6454 10.8128 49.7154 10.9248 49.8554C11.0461 49.9954 11.0928 50.1587 11.0648 50.3454C11.0461 50.532 10.9574 50.7047 10.7988 50.8634L6.71075 54.9094L6.72475 54.0974L10.9948 58.4374C11.1908 58.624 11.2934 58.82 11.3028 59.0254C11.3121 59.2307 11.2468 59.4034 11.1068 59.5434C10.9761 59.674 10.7801 59.7394 10.5188 59.7394C10.2948 59.7394 10.1128 59.6927 9.97275 59.5994C9.84208 59.506 9.68808 59.3707 9.51075 59.1934L5.38075 55.0634L5.35275 55.0634L5.35275 58.8154C5.35275 59.1047 5.27808 59.3334 5.12875 59.5014C4.97942 59.66 4.75542 59.7394 4.45675 59.7394ZM15.2373 59.7674C14.7426 59.7674 14.2993 59.674 13.9073 59.4874C13.5246 59.2914 13.2213 59.03 12.9973 58.7034C12.7826 58.3767 12.6753 58.008 12.6753 57.5974C12.6753 57.0934 12.806 56.6967 13.0673 56.4074C13.3286 56.1087 13.7533 55.894 14.3413 55.7634C14.9293 55.6327 15.718 55.5674 16.7073 55.5674L17.4073 55.5674L17.4073 56.5754L16.7213 56.5754C16.1426 56.5754 15.6806 56.6034 15.3353 56.6594C14.99 56.7154 14.7426 56.8134 14.5933 56.9534C14.4533 57.084 14.3833 57.2707 14.3833 57.5134C14.3833 57.8214 14.4906 58.0734 14.7053 58.2694C14.92 58.4654 15.2186 58.5634 15.6013 58.5634C15.9093 58.5634 16.18 58.4934 16.4133 58.3534C16.656 58.204 16.8473 58.0034 16.9873 57.7514C17.1273 57.4994 17.1973 57.21 17.1973 56.8834L17.1973 55.2734C17.1973 54.8067 17.0946 54.4707 16.8893 54.2654C16.684 54.06 16.3386 53.9574 15.8533 53.9574C15.5826 53.9574 15.2886 53.99 14.9713 54.0554C14.6633 54.1207 14.3366 54.2327 13.9913 54.3914C13.814 54.4754 13.6553 54.4987 13.5153 54.4614C13.3846 54.424 13.282 54.3494 13.2073 54.2374C13.1326 54.116 13.0953 53.9854 13.0953 53.8454C13.0953 53.7054 13.1326 53.57 13.2073 53.4394C13.282 53.2994 13.408 53.1967 13.5853 53.1314C14.0146 52.954 14.4253 52.828 14.8173 52.7534C15.2186 52.6787 15.5826 52.6414 15.9093 52.6414C16.5813 52.6414 17.132 52.744 17.5613 52.9494C18 53.1547 18.3266 53.4674 18.5413 53.8874C18.756 54.298 18.8633 54.83 18.8633 55.4834L18.8633 58.8434C18.8633 59.1327 18.7933 59.3567 18.6533 59.5154C18.5133 59.6647 18.3126 59.7394 18.0513 59.7394C17.79 59.7394 17.5846 59.6647 17.4353 59.5154C17.2953 59.3567 17.2253 59.1327 17.2253 58.8434L17.2253 58.1714L17.3373 58.1714C17.272 58.498 17.1413 58.7827 16.9453 59.0254C16.7586 59.2587 16.5206 59.4407 16.2313 59.5714C15.942 59.702 15.6106 59.7674 15.2373 59.7674ZM21.8155 59.7394C21.5355 59.7394 21.3209 59.6647 21.1715 59.5154C21.0222 59.3567 20.9475 59.1327 20.9475 58.8434L20.9475 53.5514C20.9475 53.262 21.0222 53.0427 21.1715 52.8934C21.3209 52.744 21.5309 52.6694 21.8015 52.6694C22.0722 52.6694 22.2822 52.744 22.4315 52.8934C22.5809 53.0427 22.6555 53.262 22.6555 53.5514L22.6555 54.5734L22.5015 54.1534C22.6882 53.6867 22.9775 53.318 23.3695 53.0474C23.7615 52.7767 24.2282 52.6414 24.7695 52.6414C25.3202 52.6414 25.7729 52.772 26.1275 53.0334C26.4822 53.2947 26.7295 53.696 26.8695 54.2374L26.6735 54.2374C26.8602 53.7427 27.1682 53.3554 27.5975 53.0754C28.0269 52.786 28.5215 52.6414 29.0815 52.6414C29.6042 52.6414 30.0335 52.744 30.3695 52.9494C30.7149 53.1547 30.9715 53.4674 31.1395 53.8874C31.3075 54.298 31.3915 54.8207 31.3915 55.4554L31.3915 58.8434C31.3915 59.1327 31.3122 59.3567 31.1535 59.5154C31.0042 59.6647 30.7895 59.7394 30.5095 59.7394C30.2295 59.7394 30.0149 59.6647 29.8655 59.5154C29.7162 59.3567 29.6415 59.1327 29.6415 58.8434L29.6415 55.5254C29.6415 55.0027 29.5529 54.62 29.3755 54.3774C29.2075 54.1347 28.9182 54.0134 28.5075 54.0134C28.0502 54.0134 27.6909 54.1767 27.4295 54.5034C27.1682 54.8207 27.0375 55.264 27.0375 55.8334L27.0375 58.8434C27.0375 59.1327 26.9629 59.3567 26.8135 59.5154C26.6642 59.6647 26.4495 59.7394 26.1695 59.7394C25.8895 59.7394 25.6702 59.6647 25.5115 59.5154C25.3622 59.3567 25.2875 59.1327 25.2875 58.8434L25.2875 55.5254C25.2875 55.0027 25.1989 54.62 25.0215 54.3774C24.8535 54.1347 24.5689 54.0134 24.1675 54.0134C23.7102 54.0134 23.3509 54.1767 23.0895 54.5034C22.8282 54.8207 22.6975 55.264 22.6975 55.8334L22.6975 58.8434C22.6975 59.4407 22.4035 59.7394 21.8155 59.7394ZM34.3449 62.2594C34.0649 62.2594 33.8502 62.1847 33.7009 62.0354C33.5516 61.886 33.4769 61.6667 33.4769 61.3774L33.4769 53.5514C33.4769 53.262 33.5516 53.0427 33.7009 52.8934C33.8502 52.744 34.0602 52.6694 34.3309 52.6694C34.6109 52.6694 34.8256 52.744 34.9749 52.8934C35.1242 53.0427 35.1989 53.262 35.1989 53.5514L35.1989 54.6434L35.0449 54.2234C35.1849 53.7474 35.4696 53.3647 35.8989 53.0754C36.3376 52.786 36.8462 52.6414 37.4249 52.6414C38.0222 52.6414 38.5449 52.786 38.9929 53.0754C39.4502 53.3647 39.8049 53.7754 40.0569 54.3074C40.3089 54.83 40.4349 55.46 40.4349 56.1974C40.4349 56.9254 40.3089 57.56 40.0569 58.1014C39.8049 58.6334 39.4549 59.044 39.0069 59.3334C38.5589 59.6227 38.0316 59.7674 37.4249 59.7674C36.8556 59.7674 36.3562 59.6274 35.9269 59.3474C35.4976 59.058 35.2082 58.6847 35.0589 58.2274L35.2269 58.2274L35.2269 61.3774C35.2269 61.6667 35.1476 61.886 34.9889 62.0354C34.8396 62.1847 34.6249 62.2594 34.3449 62.2594ZM36.9349 58.4374C37.2802 58.4374 37.5836 58.3534 37.8449 58.1854C38.1062 58.0174 38.3069 57.77 38.4469 57.4434C38.5962 57.1074 38.6709 56.692 38.6709 56.1974C38.6709 55.4507 38.5122 54.8954 38.1949 54.5314C37.8776 54.158 37.4576 53.9714 36.9349 53.9714C36.5896 53.9714 36.2862 54.0554 36.0249 54.2234C35.7636 54.382 35.5582 54.6294 35.4089 54.9654C35.2689 55.292 35.1989 55.7027 35.1989 56.1974C35.1989 56.9347 35.3576 57.4947 35.6749 57.8774C35.9922 58.2507 36.4122 58.4374 36.9349 58.4374ZM44.4054 59.7674C43.9108 59.7674 43.4674 59.674 43.0754 59.4874C42.6928 59.2914 42.3894 59.03 42.1654 58.7034C41.9508 58.3767 41.8434 58.008 41.8434 57.5974C41.8434 57.0934 41.9741 56.6967 42.2354 56.4074C42.4968 56.1087 42.9214 55.894 43.5094 55.7634C44.0974 55.6327 44.8861 55.5674 45.8754 55.5674L46.5754 55.5674L46.5754 56.5754L45.8894 56.5754C45.3108 56.5754 44.8488 56.6034 44.5034 56.6594C44.1581 56.7154 43.9108 56.8134 43.7614 56.9534C43.6214 57.084 43.5514 57.2707 43.5514 57.5134C43.5514 57.8214 43.6588 58.0734 43.8734 58.2694C44.0881 58.4654 44.3868 58.5634 44.7694 58.5634C45.0774 58.5634 45.3481 58.4934 45.5814 58.3534C45.8241 58.204 46.0154 58.0034 46.1554 57.7514C46.2954 57.4994 46.3654 57.21 46.3654 56.8834L46.3654 55.2734C46.3654 54.8067 46.2628 54.4707 46.0574 54.2654C45.8521 54.06 45.5068 53.9574 45.0214 53.9574C44.7508 53.9574 44.4568 53.99 44.1394 54.0554C43.8314 54.1207 43.5048 54.2327 43.1594 54.3914C42.9821 54.4754 42.8234 54.4987 42.6834 54.4614C42.5528 54.424 42.4501 54.3494 42.3754 54.2374C42.3008 54.116 42.2634 53.9854 42.2634 53.8454C42.2634 53.7054 42.3008 53.57 42.3754 53.4394C42.4501 53.2994 42.5761 53.1967 42.7534 53.1314C43.1828 52.954 43.5934 52.828 43.9854 52.7534C44.3868 52.6787 44.7508 52.6414 45.0774 52.6414C45.7494 52.6414 46.3001 52.744 46.7294 52.9494C47.1681 53.1547 47.4948 53.4674 47.7094 53.8874C47.9241 54.298 48.0314 54.83 48.0314 55.4834L48.0314 58.8434C48.0314 59.1327 47.9614 59.3567 47.8214 59.5154C47.6814 59.6647 47.4808 59.7394 47.2194 59.7394C46.9581 59.7394 46.7528 59.6647 46.6034 59.5154C46.4634 59.3567 46.3934 59.1327 46.3934 58.8434L46.3934 58.1714L46.5054 58.1714C46.4401 58.498 46.3094 58.7827 46.1134 59.0254C45.9268 59.2587 45.6888 59.4407 45.3994 59.5714C45.1101 59.702 44.7788 59.7674 44.4054 59.7674ZM50.9557 59.7394C50.6757 59.7394 50.461 59.6647 50.3117 59.5154C50.1623 59.3567 50.0877 59.1327 50.0877 58.8434L50.0877 53.5514C50.0877 53.262 50.1623 53.0427 50.3117 52.8934C50.461 52.744 50.671 52.6694 50.9417 52.6694C51.2123 52.6694 51.4223 52.744 51.5717 52.8934C51.721 53.0427 51.7957 53.262 51.7957 53.5514L51.7957 54.5034L51.6417 54.1534C51.847 53.6587 52.1643 53.2854 52.5937 53.0334C53.0323 52.772 53.527 52.6414 54.0777 52.6414C54.6283 52.6414 55.081 52.744 55.4357 52.9494C55.7903 53.1547 56.0563 53.4674 56.2337 53.8874C56.411 54.298 56.4997 54.8207 56.4997 55.4554L56.4997 58.8434C56.4997 59.1327 56.425 59.3567 56.2757 59.5154C56.1263 59.6647 55.9117 59.7394 55.6317 59.7394C55.3517 59.7394 55.1323 59.6647 54.9737 59.5154C54.8243 59.3567 54.7497 59.1327 54.7497 58.8434L54.7497 55.5394C54.7497 55.0074 54.647 54.62 54.4417 54.3774C54.2457 54.1347 53.9377 54.0134 53.5177 54.0134C53.0043 54.0134 52.5937 54.1767 52.2857 54.5034C51.987 54.8207 51.8377 55.2454 51.8377 55.7774L51.8377 58.8434C51.8377 59.4407 51.5437 59.7394 50.9557 59.7394ZM60.2248 62.2594C60.0194 62.2594 59.8514 62.2034 59.7208 62.0914C59.5901 61.9887 59.5108 61.8487 59.4828 61.6714C59.4641 61.494 59.4968 61.3074 59.5808 61.1114L60.5328 58.9974L60.5328 59.7254L57.9848 53.8314C57.9008 53.626 57.8728 53.4347 57.9008 53.2574C57.9288 53.08 58.0128 52.94 58.1528 52.8374C58.3021 52.7254 58.5028 52.6694 58.7548 52.6694C58.9694 52.6694 59.1421 52.7207 59.2728 52.8234C59.4034 52.9167 59.5201 53.0987 59.6228 53.3694L61.5128 58.0874L61.0928 58.0874L63.0248 53.3554C63.1274 53.094 63.2488 52.9167 63.3888 52.8234C63.5288 52.7207 63.7154 52.6694 63.9488 52.6694C64.1541 52.6694 64.3174 52.7254 64.4388 52.8374C64.5601 52.94 64.6348 53.08 64.6628 53.2574C64.6908 53.4254 64.6581 53.612 64.5648 53.8174L61.1628 61.5874C61.0414 61.8487 60.9108 62.026 60.7708 62.1194C60.6308 62.2127 60.4488 62.2594 60.2248 62.2594ZM68.2552 59.7674C67.7605 59.7674 67.3172 59.674 66.9252 59.4874C66.5425 59.2914 66.2392 59.03 66.0152 58.7034C65.8005 58.3767 65.6932 58.008 65.6932 57.5974C65.6932 57.0934 65.8239 56.6967 66.0852 56.4074C66.3465 56.1087 66.7712 55.894 67.3592 55.7634C67.9472 55.6327 68.7359 55.5674 69.7252 55.5674L70.4252 55.5674L70.4252 56.5754L69.7392 56.5754C69.1605 56.5754 68.6985 56.6034 68.3532 56.6594C68.0079 56.7154 67.7605 56.8134 67.6112 56.9534C67.4712 57.084 67.4012 57.2707 67.4012 57.5134C67.4012 57.8214 67.5085 58.0734 67.7232 58.2694C67.9379 58.4654 68.2365 58.5634 68.6192 58.5634C68.9272 58.5634 69.1979 58.4934 69.4312 58.3534C69.6739 58.204 69.8652 58.0034 70.0052 57.7514C70.1452 57.4994 70.2152 57.21 70.2152 56.8834L70.2152 55.2734C70.2152 54.8067 70.1125 54.4707 69.9072 54.2654C69.7019 54.06 69.3565 53.9574 68.8712 53.9574C68.6005 53.9574 68.3065 53.99 67.9892 54.0554C67.6812 54.1207 67.3545 54.2327 67.0092 54.3914C66.8319 54.4754 66.6732 54.4987 66.5332 54.4614C66.4025 54.424 66.2999 54.3494 66.2252 54.2374C66.1505 54.116 66.1132 53.9854 66.1132 53.8454C66.1132 53.7054 66.1505 53.57 66.2252 53.4394C66.2999 53.2994 66.4259 53.1967 66.6032 53.1314C67.0325 52.954 67.4432 52.828 67.8352 52.7534C68.2365 52.6787 68.6005 52.6414 68.9272 52.6414C69.5992 52.6414 70.1499 52.744 70.5792 52.9494C71.0179 53.1547 71.3445 53.4674 71.5592 53.8874C71.7739 54.298 71.8812 54.83 71.8812 55.4834L71.8812 58.8434C71.8812 59.1327 71.8112 59.3567 71.6712 59.5154C71.5312 59.6647 71.3305 59.7394 71.0692 59.7394C70.8079 59.7394 70.6025 59.6647 70.4532 59.5154C70.3132 59.3567 70.2432 59.1327 70.2432 58.8434L70.2432 58.1714L70.3552 58.1714C70.2899 58.498 70.1592 58.7827 69.9632 59.0254C69.7765 59.2587 69.5385 59.4407 69.2492 59.5714C68.9599 59.702 68.6285 59.7674 68.2552 59.7674ZM76.2754 59.7674C75.5008 59.7674 74.9174 59.548 74.5254 59.1094C74.1334 58.6614 73.9374 58.008 73.9374 57.1494L73.9374 50.5274C73.9374 50.238 74.0121 50.0187 74.1614 49.8694C74.3108 49.72 74.5254 49.6454 74.8054 49.6454C75.0854 49.6454 75.3001 49.72 75.4494 49.8694C75.6081 50.0187 75.6874 50.238 75.6874 50.5274L75.6874 57.0654C75.6874 57.4947 75.7761 57.812 75.9534 58.0174C76.1401 58.2227 76.4014 58.3254 76.7374 58.3254C76.8121 58.3254 76.8821 58.3254 76.9474 58.3254C77.0128 58.316 77.0781 58.3067 77.1434 58.2974C77.2741 58.2787 77.3628 58.316 77.4094 58.4094C77.4561 58.4934 77.4794 58.6707 77.4794 58.9414C77.4794 59.1747 77.4328 59.3567 77.3394 59.4874C77.2461 59.618 77.0921 59.6974 76.8774 59.7254C76.7841 59.7347 76.6861 59.744 76.5834 59.7534C76.4808 59.7627 76.3781 59.7674 76.2754 59.7674ZM80.9421 59.7674C80.4475 59.7674 80.0041 59.674 79.6121 59.4874C79.2295 59.2914 78.9261 59.03 78.7021 58.7034C78.4875 58.3767 78.3801 58.008 78.3801 57.5974C78.3801 57.0934 78.5108 56.6967 78.7721 56.4074C79.0335 56.1087 79.4581 55.894 80.0461 55.7634C80.6341 55.6327 81.4228 55.5674 82.4121 55.5674L83.1121 55.5674L83.1121 56.5754L82.4261 56.5754C81.8475 56.5754 81.3855 56.6034 81.0401 56.6594C80.6948 56.7154 80.4475 56.8134 80.2981 56.9534C80.1581 57.084 80.0881 57.2707 80.0881 57.5134C80.0881 57.8214 80.1955 58.0734 80.4101 58.2694C80.6248 58.4654 80.9235 58.5634 81.3061 58.5634C81.6141 58.5634 81.8848 58.4934 82.1181 58.3534C82.3608 58.204 82.5521 58.0034 82.6921 57.7514C82.8321 57.4994 82.9021 57.21 82.9021 56.8834L82.9021 55.2734C82.9021 54.8067 82.7995 54.4707 82.5941 54.2654C82.3888 54.06 82.0435 53.9574 81.5581 53.9574C81.2875 53.9574 80.9935 53.99 80.6761 54.0554C80.3681 54.1207 80.0415 54.2327 79.6961 54.3914C79.5188 54.4754 79.3601 54.4987 79.2201 54.4614C79.0895 54.424 78.9868 54.3494 78.9121 54.2374C78.8375 54.116 78.8001 53.9854 78.8001 53.8454C78.8001 53.7054 78.8375 53.57 78.9121 53.4394C78.9868 53.2994 79.1128 53.1967 79.2901 53.1314C79.7195 52.954 80.1301 52.828 80.5221 52.7534C80.9235 52.6787 81.2875 52.6414 81.6141 52.6414C82.2861 52.6414 82.8368 52.744 83.2661 52.9494C83.7048 53.1547 84.0315 53.4674 84.2461 53.8874C84.4608 54.298 84.5681 54.83 84.5681 55.4834L84.5681 58.8434C84.5681 59.1327 84.4981 59.3567 84.3581 59.5154C84.2181 59.6647 84.0175 59.7394 83.7561 59.7394C83.4948 59.7394 83.2895 59.6647 83.1401 59.5154C83.0001 59.3567 82.9301 59.1327 82.9301 58.8434L82.9301 58.1714L83.0421 58.1714C82.9768 58.498 82.8461 58.7827 82.6501 59.0254C82.4635 59.2587 82.2255 59.4407 81.9361 59.5714C81.6468 59.702 81.3155 59.7674 80.9421 59.7674ZM87.5204 59.7394C87.2311 59.7394 87.0071 59.6647 86.8484 59.5154C86.6991 59.3567 86.6244 59.1327 86.6244 58.8434L86.6244 53.5514C86.6244 53.262 86.6991 53.0427 86.8484 52.8934C86.9977 52.744 87.2077 52.6694 87.4784 52.6694C87.7491 52.6694 87.9591 52.744 88.1084 52.8934C88.2577 53.0427 88.3324 53.262 88.3324 53.5514L88.3324 54.4334L88.1924 54.4334C88.3231 53.8734 88.5797 53.4487 88.9624 53.1594C89.3451 52.87 89.8537 52.6974 90.4884 52.6414C90.6844 52.6227 90.8384 52.674 90.9504 52.7954C91.0717 52.9074 91.1417 53.0847 91.1604 53.3274C91.1791 53.5607 91.1231 53.752 90.9924 53.9014C90.8711 54.0414 90.6844 54.1254 90.4324 54.1534L90.1244 54.1814C89.5551 54.2374 89.1257 54.4147 88.8364 54.7134C88.5471 55.0027 88.4024 55.4134 88.4024 55.9454L88.4024 58.8434C88.4024 59.1327 88.3277 59.3567 88.1784 59.5154C88.0291 59.6647 87.8097 59.7394 87.5204 59.7394Z" fill="#0055FF"/>
<defs>
<linearGradient id="paint0_linear_24_212" x1="46.8399" y1="0.865295" x2="46.8399" y2="29.7454" gradientUnits="userSpaceOnUse">
<stop stop-color="#FF0000"/>
<stop offset="0.161458" stop-color="#FF5C40"/>
<stop offset="0.401042" stop-color="#F7F751"/>
<stop offset="0.484375" stop-color="#71F34A"/>
<stop offset="0.661458" stop-color="#0000ED"/>
<stop offset="0.713542" stop-color="#420879"/>
<stop offset="0.916667" stop-color="#A83BEE"/>
</linearGradient>
<linearGradient id="paint1_linear_24_212" x1="54.2351" y1="11.3672" x2="54.2351" y2="13.0283" gradientUnits="userSpaceOnUse">
<stop stop-color="#FF0000"/>
<stop offset="0.385417" stop-color="#CC030D" stop-opacity="0.791667"/>
<stop offset="1" stop-color="#FFED50" stop-opacity="0.87"/>
</linearGradient>
<linearGradient id="paint2_linear_24_212" x1="54.2351" y1="0.865295" x2="54.2351" y2="2.52648" gradientUnits="userSpaceOnUse">
<stop stop-color="#FF0000"/>
<stop offset="0.385417" stop-color="#CC030D" stop-opacity="0.791667"/>
<stop offset="1" stop-color="#FFED50" stop-opacity="0.87"/>
</linearGradient>
</defs>
</svg>
